<svg width="40" height="40" viewBox="0 0 40 40" fill="none" xmlns="http://www.w3.org/2000/svg">
<g id="792107 1">
<g id="Group">
<g id="Group_2">
<path id="Vector" d="M2.89062 33.2764C2.45914 33.2764 2.10938 33.6261 2.10938 34.0576V34.0686C2.10938 34.5 2.45914 34.8498 2.89062 34.8498C3.32211 34.8498 3.67188 34.5 3.67188 34.0686V34.0576C3.67188 33.6262 3.32211 33.2764 2.89062 33.2764Z" fill="white"/>
</g>
</g>
<g id="Group_3">
<g id="Group_4">
<path id="Vector_2" d="M10.803 14.5013C10.4706 14.2265 9.97813 14.2732 9.70313 14.6058L9.69079 14.6207C9.41594 14.9534 9.46266 15.4458 9.79532 15.7207C9.94094 15.8411 10.1173 15.8998 10.2926 15.8998C10.5175 15.8998 10.7407 15.8031 10.8952 15.6162L10.9075 15.6013C11.1824 15.2687 11.1356 14.7762 10.803 14.5013Z" fill="white"/>
</g>
</g>
<g id="Group_5">
<g id="Group_6">
<path id="Vector_3" d="M33.7433 9.58967C32.2912 9.58967 30.8792 10.1144 29.7656 11.0499C28.6521 10.1144 27.2402 9.58967 25.788 9.58967C22.338 9.58967 19.5312 12.4595 19.5312 15.9871C19.5312 16.8008 19.7905 17.7377 20.3189 18.8282H15.6422L17.4865 14.8423C18.3227 13.0349 18.0266 10.8894 16.7319 9.37631L15.962 8.47655C15.8122 8.30139 15.5934 8.20022 15.362 8.20319C15.1314 8.20506 14.9134 8.30874 14.7665 8.48639L11.7916 12.0819C11.5166 12.4143 11.5631 12.9068 11.8955 13.1818C12.228 13.4569 12.7205 13.4104 12.9955 13.0779L15.3784 10.1978L15.5445 10.392C16.4431 11.4423 16.6488 12.9315 16.0683 14.186L13.7107 19.2812C13.5987 19.5232 13.6179 19.8055 13.7615 20.0301C13.905 20.2547 14.1532 20.3905 14.4198 20.3905H28.124C28.8878 20.3905 29.5093 21.012 29.5093 21.7758V21.8176C29.5093 22.5815 28.8878 23.203 28.124 23.203H23.8952H18.0808C17.6493 23.203 17.2995 23.5527 17.2995 23.9842C17.2995 24.4157 17.6493 24.7655 18.0808 24.7655H23.8952C24.2677 24.7655 24.6057 24.914 24.8549 25.154C24.9028 25.2083 24.9505 25.2625 24.9983 25.3162C25.1746 25.5487 25.2805 25.8373 25.2805 26.1508V26.1926C25.2805 26.9565 24.6591 27.578 23.8952 27.578H18.0808C17.6493 27.578 17.2995 27.9277 17.2995 28.3592C17.2995 28.7907 17.6493 29.1405 18.0808 29.1405H23.8952C24.6591 29.1405 25.2805 29.7619 25.2805 30.5258V30.5676C25.2805 31.3315 24.6591 31.9529 23.8952 31.9529H21.2448H18.0808C17.6493 31.9529 17.2995 32.3026 17.2995 32.7341C17.2995 33.1656 17.6493 33.5154 18.0808 33.5154H21.2448C22.0087 33.5154 22.6302 34.1369 22.6302 34.9007V34.9425C22.6302 35.7064 22.0087 36.3278 21.2448 36.3278H9.93891C8.8857 36.3278 7.85445 36.1328 6.87383 35.7483L5.78125 35.3201V21.7974L8.9568 17.9593C9.23188 17.6269 9.18531 17.1344 8.85289 16.8594C8.52055 16.5843 8.02797 16.6308 7.75297 16.9633L5.63039 19.5287C5.48828 19.3343 5.25922 19.2075 5 19.2075H0.78125C0.349766 19.2075 0 19.5573 0 19.9887V37.1094C0 37.5409 0.349766 37.8907 0.78125 37.8907H5C5.43148 37.8907 5.78125 37.5409 5.78125 37.1094V36.9985L6.30336 37.2033C7.46641 37.6594 8.68961 37.8907 9.93891 37.8907H21.2449C22.8704 37.8907 24.1927 36.5683 24.1927 34.9429V34.9011C24.1927 34.4005 24.067 33.929 23.846 33.5158H23.8953C25.5208 33.5158 26.8431 32.1933 26.8431 30.568V30.5262C26.8431 29.6702 26.4761 28.8986 25.8916 28.3596C26.2486 28.0304 26.5238 27.6142 26.6845 27.1451C28.0961 28.6226 29.1669 29.6198 29.2341 29.6823C29.384 29.8215 29.5748 29.891 29.7657 29.891C29.9566 29.891 30.1474 29.8214 30.2973 29.6823C30.357 29.6269 31.7796 28.3029 33.5358 26.4137C33.8295 26.0976 33.8115 25.6033 33.4955 25.3095C33.1794 25.0157 32.6851 25.0337 32.3913 25.3498C31.3062 26.5172 30.3356 27.4783 29.7657 28.0301C29.1049 27.3901 27.9045 26.1984 26.6041 24.7659H28.124C29.7495 24.7659 31.0718 23.4435 31.0718 21.8181V21.7763C31.0718 20.1508 29.7495 18.8285 28.124 18.8285H22.0821C21.2723 17.3801 21.0938 16.4896 21.0938 15.9871C21.0938 13.3211 23.1996 11.1522 25.788 11.1522C27.0871 11.1522 28.2958 11.6868 29.1913 12.6576C29.3393 12.8179 29.5474 12.909 29.7655 12.909C29.9837 12.909 30.1919 12.8179 30.3398 12.6576C31.2354 11.6868 32.4441 11.1522 33.7432 11.1522C36.3316 11.1522 38.4374 13.3212 38.4374 15.9871C38.4374 16.7408 38.0497 18.182 36.2025 20.768C35.9517 21.1191 36.033 21.6071 36.3841 21.8579C36.5218 21.9562 36.6804 22.0035 36.8376 22.0035C37.0813 22.0035 37.3215 21.8898 37.474 21.6763C39.1737 19.2967 40 17.4358 40 15.9871C40 12.4595 37.1932 9.58967 33.7433 9.58967ZM4.21875 36.3282H1.5625V20.7701H4.21875V36.3282Z" fill="white"/>
</g>
</g>
<g id="Group_7">
<g id="Group_8">
<path id="Vector_4" d="M35.3286 23.1932C34.9994 22.9142 34.5065 22.9547 34.2275 23.2839L34.1873 23.3312C33.9083 23.6603 33.9489 24.1533 34.278 24.4323C34.4249 24.5568 34.6043 24.6177 34.7829 24.6177C35.0044 24.6177 35.2247 24.5239 35.3791 24.3417L35.4193 24.2943C35.6983 23.9652 35.6576 23.4722 35.3286 23.1932Z" fill="white"/>
</g>
</g>
<g id="Group_9">
<g id="Group_10">
<path id="Vector_5" d="M29.7656 2.10938C29.3341 2.10938 28.9844 2.45914 28.9844 2.89062V6.33461C28.9844 6.76609 29.3341 7.11586 29.7656 7.11586C30.1971 7.11586 30.5469 6.76609 30.5469 6.33461V2.89062C30.5469 2.45914 30.1971 2.10938 29.7656 2.10938Z" fill="white"/>
</g>
</g>
<g id="Group_11">
<g id="Group_12">
<path id="Vector_6" d="M25.2281 5.46116L24.1923 3.66718C23.9765 3.29343 23.4987 3.16538 23.1251 3.38124C22.7515 3.59695 22.6234 4.07476 22.8392 4.44843L23.875 6.24241C24.0197 6.49304 24.2822 6.63311 24.5522 6.63311C24.6847 6.63311 24.8191 6.59937 24.9422 6.52835C25.3158 6.31265 25.4439 5.83483 25.2281 5.46116Z" fill="white"/>
</g>
</g>
<g id="Group_13">
<g id="Group_14">
<path id="Vector_7" d="M36.4051 3.37432C36.0315 3.15862 35.5537 3.28659 35.3379 3.66026L34.3021 5.45424C34.0863 5.82792 34.2144 6.30565 34.588 6.52143C34.7111 6.59245 34.8454 6.6262 34.9779 6.6262C35.2479 6.6262 35.5105 6.48612 35.6552 6.2355L36.691 4.44151C36.9068 4.06784 36.7787 3.59002 36.4051 3.37432Z" fill="white"/>
</g>
</g>
</g>
</svg>
