<svg width="40" height="40" viewBox="0 0 40 40" fill="none" xmlns="http://www.w3.org/2000/svg">
<g id="3154411" clip-path="url(#clip0_673_468)">
<g id="Group">
<path id="Vector" d="M40 17.7864C40 13.0913 38.1687 8.67735 34.8433 5.35758C31.5183 2.03805 27.0976 0.209961 22.3956 0.209961C17.4887 0.209961 12.7896 2.26696 9.46191 5.86228C8.8669 5.64189 8.23141 5.52688 7.57843 5.52688C7.57835 5.52688 7.57851 5.52688 7.57843 5.52688C6.13004 5.52688 4.76766 6.09252 3.74256 7.1195C3.72115 7.14098 3.70099 7.16364 3.68224 7.18747L2.45737 8.73969C1.28648 10.2236 0.495294 11.9882 0.169427 13.8428C-0.159253 15.7134 -0.00784319 17.6419 0.607328 19.4198C1.0532 20.7084 1.61415 21.6973 2.27471 22.3591L17.418 37.5269C17.9418 38.0516 18.6766 38.518 19.6021 38.9128C20.9825 39.5018 22.4484 39.7904 23.9122 39.7903C26.3493 39.7903 28.7802 38.9899 30.7955 37.4429L32.5376 36.1056C32.5648 36.0847 32.5907 36.0621 32.6149 36.0378C33.9891 34.661 34.47 32.7228 34.0574 30.9532C37.8362 27.6147 40 22.8255 40 17.7864ZM31.5434 34.899L29.8442 36.2034C27.0651 38.3366 23.3757 38.8241 20.2154 37.4757C19.4748 37.1597 18.9057 36.8055 18.5239 36.423L3.38052 21.2551C2.88824 20.7619 2.45198 19.9725 2.08392 18.9088C1.00351 15.7861 1.60165 12.3464 3.68396 9.70761L4.87938 8.19265C5.60557 7.48083 6.56231 7.08942 7.57835 7.08942C8.60884 7.08942 9.57832 7.49216 10.3082 8.22335L12.8099 10.7297C14.2482 12.1707 14.2482 14.5153 12.8097 15.9564L10.0079 18.7652C9.70356 19.0702 9.70363 19.5641 10.0081 19.8689L19.8869 29.7622C20.0335 29.9089 20.2323 29.9914 20.4397 29.9914H20.44C20.6475 29.9914 20.8464 29.9088 20.9929 29.7619L23.7945 26.9534C24.4913 26.2553 25.417 25.8708 26.4008 25.8708C27.3847 25.8708 28.3102 26.2553 29.0071 26.9534L31.5088 29.4598C33.0038 30.9575 33.0153 33.3871 31.5434 34.899ZM30.3491 26.086L30.1131 25.8496C29.121 24.8557 27.8027 24.3083 26.4009 24.3083C24.9991 24.3083 23.6808 24.8557 22.6885 25.8498L20.4395 28.1043L11.6649 19.3167L13.9158 17.0601C15.8971 15.0752 15.9596 11.8848 14.1034 9.8237C16.2684 7.57873 19.2625 6.30057 22.3956 6.30057C28.7402 6.30057 33.9018 11.453 33.9018 17.7863C33.9018 20.9261 32.613 23.9229 30.3491 26.086ZM32.6149 28.356L31.4532 27.1922C34.0096 24.7368 35.4643 21.3424 35.4643 17.7863C35.4643 10.5915 29.6017 4.73804 22.3956 4.73804C18.8498 4.73804 15.4609 6.1794 13.0043 8.71258L11.4141 7.1195C11.243 6.94801 11.0624 6.78941 10.8737 6.64417C13.888 3.54074 18.0525 1.7725 22.3956 1.7725C31.2411 1.7725 38.4374 8.95626 38.4374 17.7863C38.4374 22.1912 36.6222 26.3868 33.4336 29.4066C33.2097 29.0319 32.9368 28.6785 32.6149 28.356Z" fill="white"/>
<path id="Vector_2" d="M27.7881 17.8354H27.7005C27.71 16.1913 27.7149 14.434 27.6946 14.1897C27.6488 13.6385 27.3178 13.1892 26.8512 13.0452C26.3884 12.9024 25.8971 13.082 25.5369 13.5258C25.1479 14.0052 23.3524 17.2557 22.8114 18.2405C22.6784 18.4826 22.6831 18.7768 22.8237 19.0145C22.9643 19.2522 23.22 19.398 23.4961 19.398H26.1275C26.1243 19.8362 26.1209 20.2563 26.1177 20.6358C26.114 21.0673 26.4608 21.4201 26.8922 21.4237C26.8945 21.4238 26.8969 21.4238 26.8991 21.4238C27.3274 21.4238 27.6766 21.0784 27.6802 20.6493C27.6822 20.415 27.6859 19.9612 27.6902 19.398H27.7881C28.2195 19.398 28.5693 19.0482 28.5693 18.6167C28.5694 18.1852 28.2195 17.8354 27.7881 17.8354ZM26.1377 17.8354H24.821C25.3094 16.9583 25.7855 16.1168 26.1465 15.4961C26.1461 16.1372 26.1427 16.971 26.1377 17.8354Z" fill="white"/>
<path id="Vector_3" d="M21.6492 20.0789C20.9622 20.0876 20.2333 20.0933 19.6288 20.0945C20.0083 19.5849 20.5362 18.8606 21.2499 17.8365C21.6869 17.2095 21.9718 16.617 22.0968 16.0754C22.1261 15.9517 22.1506 15.716 22.1506 15.6342C22.152 14.235 21.0156 13.0967 19.6205 13.0967C18.4139 13.0967 17.3698 13.9576 17.1377 15.1439C17.0549 15.5674 17.331 15.9778 17.7545 16.0606C18.1779 16.1433 18.5884 15.8672 18.6712 15.4438C18.7601 14.9891 19.1593 14.6592 19.6205 14.6592C20.14 14.6592 20.5651 15.0738 20.5872 15.5919L20.5659 15.7588C20.4807 16.0977 20.2797 16.496 19.9679 16.9432C18.8853 18.4966 18.2393 19.346 17.8923 19.8025C17.4635 20.3663 17.2678 20.6236 17.4009 21.0557C17.4791 21.3095 17.6713 21.5044 17.9282 21.5904C18.0327 21.6254 18.1328 21.6589 19.4617 21.6589C19.9832 21.6589 20.6943 21.6537 21.6688 21.6414C22.1002 21.636 22.4456 21.2818 22.4402 20.8504C22.4349 20.4189 22.0793 20.0746 21.6492 20.0789Z" fill="white"/>
</g>
</g>
<defs>
<clipPath id="clip0_673_468">
<rect width="40" height="40" fill="white"/>
</clipPath>
</defs>
</svg>
