<svg width="40" height="40" viewBox="0 0 40 40" fill="none" xmlns="http://www.w3.org/2000/svg">
<g id="2912992 1" clip-path="url(#clip0_673_443)">
<g id="Group">
<g id="Group_2">
<g id="Group_3">
<g id="Group_4">
<g id="Group_5">
<g id="Group_6">
<g id="Group_7">
<path id="Vector" d="M12.2773 16.9088C11.8459 16.9088 11.4961 16.559 11.4961 16.1275V15.5225C11.4961 15.091 11.8459 14.7412 12.2773 14.7412C12.7088 14.7412 13.0586 15.091 13.0586 15.5225V16.1275C13.0586 16.5589 12.7088 16.9088 12.2773 16.9088Z" fill="white"/>
</g>
</g>
</g>
<g id="Group_8">
<g id="Group_9">
<g id="Group_10">
<path id="Vector_2" d="M17.7773 16.9088C17.3459 16.9088 16.9961 16.559 16.9961 16.1275V15.5225C16.9961 15.091 17.3459 14.7412 17.7773 14.7412C18.2088 14.7412 18.5586 15.091 18.5586 15.5225V16.1275C18.5586 16.5589 18.2088 16.9088 17.7773 16.9088Z" fill="white"/>
</g>
</g>
</g>
</g>
<g id="Group_11">
<g id="Group_12">
<path id="Vector_3" d="M14.9713 21.2691C14.3169 21.2691 13.702 21.0134 13.2396 20.5494C12.935 20.2438 12.9359 19.7491 13.2415 19.4446C13.5474 19.1401 14.0419 19.141 14.3464 19.4466C14.5135 19.6143 14.7354 19.7066 14.9713 19.7066C15.2071 19.7066 15.429 19.6143 15.596 19.4466C15.9006 19.1409 16.3953 19.1401 16.701 19.4446C17.0066 19.7491 17.0075 20.2438 16.7029 20.5494C16.2405 21.0134 15.6256 21.2691 14.9713 21.2691Z" fill="white"/>
</g>
</g>
<g id="Group_13">
<path id="Vector_4" d="M38.8135 32.2693C38.4162 32.1017 37.9578 32.2882 37.7901 32.6858C36.4967 35.7547 33.5164 37.7376 30.1974 37.7376C25.6537 37.7376 21.9572 34.0266 21.9572 29.4652C21.9572 24.9037 25.6537 21.1927 30.1974 21.1927C33.5341 21.1927 36.5205 23.1902 37.8057 26.2816C37.9712 26.68 38.4286 26.8685 38.8269 26.703C39.2254 26.5374 39.4141 26.0801 39.2484 25.6817C37.7202 22.0055 34.1675 19.6302 30.1974 19.6302C29.3021 19.6302 28.4345 19.7513 27.6099 19.9779V13.3724C27.6099 6.38441 21.9437 0.699219 14.9789 0.699219C8.01427 0.699219 2.34806 6.38441 2.34806 13.3724V20.1664C0.905943 20.9557 0 22.4647 0 24.1449C0 26.405 1.65681 28.2842 3.81619 28.6251C3.01392 29.4792 2.52189 30.6278 2.52189 31.8893V38.5189C2.52189 38.9504 2.87174 39.3001 3.30314 39.3001H26.6546C26.957 39.3001 27.2193 39.1283 27.3491 38.8769C28.2509 39.152 29.2072 39.3001 30.1974 39.3001C34.1464 39.3001 37.6919 36.9421 39.2299 33.2927C39.3976 32.895 39.211 32.4369 38.8135 32.2693ZM1.56251 24.1449C1.56251 22.9228 2.29212 21.8392 3.42119 21.3843C3.7169 21.2653 3.91057 20.9785 3.91057 20.6597V13.3723C3.91057 7.24582 8.87583 2.26165 14.979 2.26165C21.0822 2.26165 26.0473 7.2459 26.0473 13.3723V20.5556C23.3964 21.8036 21.3896 24.2083 20.6768 27.1177H17.429V25.149C18.9626 24.6653 20.3404 23.7257 21.3568 22.4597C22.5226 21.0077 23.1646 19.1795 23.1646 17.3117V14.5004C23.1646 14.15 22.9313 13.8424 22.5938 13.748C21.0667 13.3208 19.3146 12.1964 17.7868 10.6631C17.3992 10.2742 17.0333 9.86607 16.6992 9.45005C15.5709 8.04504 13.8222 7.30137 12.0234 7.4609C10.234 7.61934 8.65357 8.6513 7.79591 10.2215C7.13989 11.4224 6.79309 12.7854 6.79309 14.163V17.3118C6.79309 19.1796 7.43512 21.0079 8.60083 22.4598C9.61732 23.7258 10.9951 24.6654 12.5287 25.1491V27.1178H4.52206C2.89017 27.1177 1.56251 25.7841 1.56251 24.1449ZM13.4859 23.7919C10.4653 23.0936 8.35567 20.4289 8.35567 17.3117V14.1629C8.35567 13.0463 8.6363 11.9424 9.16732 10.9704C9.7831 9.8431 10.8744 9.13122 12.1613 9.01731C13.4391 8.90458 14.6806 9.43161 15.481 10.4285C15.8499 10.8878 16.2533 11.3378 16.68 11.7661C18.2114 13.3028 19.9743 14.4816 21.6022 15.0696V17.3118C21.6022 20.4289 19.4925 23.0937 16.4719 23.792C16.1175 23.874 15.8666 24.1895 15.8666 24.5532V27.1179H14.0913V24.5532C14.0913 24.1894 13.8403 23.8738 13.4859 23.7919ZM17.4657 28.6802L14.9302 36.2145L12.0341 28.6802H17.4657ZM4.0844 31.8893C4.0844 30.1199 5.52394 28.6803 7.2934 28.6803H10.36L13.8416 37.7376H4.0844V31.8893ZM16.0662 37.7376L19.1143 28.6803H20.4256C20.4051 28.9393 20.3946 29.201 20.3946 29.4652C20.3946 32.9321 22.1919 35.9858 24.9008 37.7376H16.0662Z" fill="white"/>
<path id="Vector_5" d="M39.9853 29.3117C39.919 28.9906 39.6547 28.7387 39.3299 28.6914C39.0042 28.6441 38.6739 28.8149 38.5244 29.1081C38.376 29.3992 38.4249 29.7597 38.6488 29.999C38.8689 30.2342 39.2203 30.3083 39.5172 30.186C39.8574 30.046 40.0574 29.6727 39.9853 29.3117Z" fill="white"/>
<path id="Vector_6" d="M35.3837 26.6534C35.3837 26.2219 35.0338 25.8721 34.6024 25.8721C33.7425 25.8721 33.043 26.5729 33.043 27.4343V28.0142C33.043 29.3182 32.1691 30.4211 30.9787 30.763V27.3271C31.3035 27.2324 31.5408 26.9325 31.5408 26.5771C31.5408 26.1457 31.1909 25.7959 30.7595 25.7959H29.6355C29.2041 25.7959 28.8542 26.1457 28.8542 26.5771C28.8542 26.9325 29.0915 27.2324 29.4162 27.3271V30.763C28.2259 30.4211 27.352 29.3182 27.352 28.0142V27.4343C27.352 26.5729 26.6525 25.8721 25.7926 25.8721C25.3611 25.8721 25.0098 26.2218 25.0098 26.6532C25.0098 27.0847 25.358 27.4343 25.7895 27.4343V28.0142C25.7895 30.1846 27.357 31.9947 29.4161 32.3655V34.331C29.0914 34.4257 28.8541 34.7257 28.8541 35.081C28.8541 35.5125 29.204 35.8622 29.6354 35.8622H30.7595C31.1909 35.8622 31.5407 35.5125 31.5407 35.081C31.5407 34.7256 31.3034 34.4257 30.9787 34.331V32.3656C33.0379 31.9947 34.6054 30.1846 34.6054 28.0143L34.602 27.4347H34.6023C35.0339 27.4346 35.3837 27.0849 35.3837 26.6534Z" fill="white"/>
</g>
</g>
</g>
</g>
</g>
<defs>
<clipPath id="clip0_673_443">
<rect width="40" height="40" fill="white"/>
</clipPath>
</defs>
</svg>
