<svg width="40" height="40" viewBox="0 0 40 40" fill="none" xmlns="http://www.w3.org/2000/svg">
<g id="3203819 1">
<g id="Group">
<g id="Group_2">
<path id="Vector" d="M32.668 4.53398C29.7119 1.61016 25.7975 0 21.6459 0C17.4944 0 13.5801 1.61016 10.6239 4.53391C7.66546 7.46 6.03617 11.3357 6.03617 15.4473C6.03617 16.4392 5.20211 18.1701 3.74796 20.1962C2.46914 21.978 2.64609 23.2198 3.01961 23.9478C3.42226 24.7323 4.43656 25.6542 6.96281 25.8115V29.9407C6.96281 32.5752 9.12593 34.7185 11.7849 34.7185C14.259 34.7185 15.5412 34.8091 16.137 35.324C16.7216 35.8291 16.9024 37.0491 17.048 39.2697C17.0749 39.6805 17.4159 39.9998 17.8276 39.9998H30.9509C31.1669 39.9998 31.3734 39.9103 31.5211 39.7527C31.6688 39.595 31.7445 39.3831 31.7305 39.1675C31.5942 37.0891 31.5501 35.6453 31.583 34.34C31.5938 33.9087 31.2529 33.5502 30.8216 33.5393C30.389 33.5312 30.0319 33.8694 30.0209 34.3007C29.9915 35.4716 30.0211 36.7406 30.1197 38.4373H18.5558C18.4 36.4138 18.1474 34.9962 17.1587 34.1418C16.0948 33.2223 14.4188 33.156 11.7849 33.156C9.98757 33.156 8.52531 31.7136 8.52531 29.9407V28.5682C8.5689 28.5758 8.61343 28.5805 8.65921 28.5805C9.37781 28.5805 10.3022 28.8461 11.0141 29.2571C11.1372 29.3282 11.2715 29.3619 11.404 29.3619C11.674 29.3619 11.9366 29.2218 12.0813 28.9712C12.2971 28.5975 12.1691 28.1197 11.7954 27.9039C10.849 27.3574 9.64718 27.0179 8.65921 27.0179C8.61351 27.0179 8.5689 27.0227 8.52531 27.0302V25.0535C8.52531 24.622 8.17546 24.2723 7.74406 24.2723C5.98984 24.2723 4.74336 23.8842 4.40976 23.2342C4.16265 22.7527 4.37851 21.9973 5.01734 21.1071C6.19492 19.4664 7.59867 17.1526 7.59867 15.4472C7.59875 7.79125 13.9003 1.5625 21.6459 1.5625C29.3916 1.5625 35.6932 7.79125 35.6932 15.4474C35.6932 17.9934 34.9812 20.4877 33.6341 22.6606C32.6492 24.2492 31.9032 25.7194 31.3534 27.1549C31.1991 27.5578 31.4005 28.0096 31.8035 28.1639C32.2065 28.3182 32.6581 28.1167 32.8126 27.7137C33.3267 26.3713 34.0298 24.9877 34.9621 23.4839C36.4627 21.0635 37.2558 18.2845 37.2558 15.4474C37.2557 11.3359 35.6265 7.46 32.668 4.53398Z" fill="white"/>
<path id="Vector_2" d="M20.3412 17.8916C22.9413 18.1591 25.6301 18.4358 28.0995 19.8615C29.0798 20.4275 29.9004 20.626 30.5692 20.626C31.2019 20.626 31.699 20.4484 32.067 20.2359C33.3593 19.4897 34.1309 17.6996 34.1309 15.4474C34.1309 12.1521 32.817 9.05148 30.4313 6.7168C28.0646 4.40055 24.9446 3.125 21.6461 3.125C17.8946 3.125 14.3679 4.78703 11.9699 7.685C10.3859 9.59945 9.8189 11.3887 10.2847 13.0031C10.7833 14.7312 12.4397 16.1029 15.0748 16.9698C16.7562 17.5227 18.5787 17.7102 20.3412 17.8916ZM11.7859 12.5699C11.472 11.4819 11.939 10.1735 13.1738 8.68109C15.2739 6.14312 18.3619 4.6875 21.6461 4.6875C27.6687 4.6875 32.5684 9.51437 32.5684 15.4474C32.5684 17.0845 32.0649 18.4329 31.2858 18.8827C30.7029 19.2192 29.8938 19.0932 28.8808 18.5084C26.1221 16.9156 23.2646 16.6216 20.5012 16.3373C18.7438 16.1565 17.0841 15.9857 15.5632 15.4854C13.4713 14.7973 12.1299 13.762 11.7859 12.5699Z" fill="white"/>
<path id="Vector_3" d="M20.7616 14.7991C21.2109 14.8428 21.6354 14.8841 22.0485 14.932C24.6283 15.231 26.4453 15.6658 28.1239 16.3858C28.4297 16.517 28.749 16.5816 29.059 16.5816C29.4936 16.5816 29.9097 16.4545 30.2443 16.2057C30.7746 15.8115 31.0308 15.1637 30.9473 14.4283C30.6929 12.188 29.5982 10.1173 27.8646 8.59781C26.1373 7.08375 23.9286 6.25 21.645 6.25C18.8392 6.25 16.1999 7.48914 14.3981 9.65125C13.8483 10.2202 13.6325 11.0261 13.8204 11.8155C14.059 12.8169 14.8717 13.6136 16.0502 14.0012C17.5155 14.4831 19.1657 14.6437 20.7616 14.7991ZM15.3405 11.4534C15.275 11.1786 15.3445 10.9141 15.531 10.7277C15.5483 10.7103 15.5648 10.6921 15.5804 10.6733C17.0847 8.85516 19.2952 7.8125 21.645 7.8125C25.5582 7.8125 28.9622 10.7959 29.3946 14.6045C29.4145 14.7795 29.3866 14.8962 29.3119 14.9518C29.2088 15.0286 28.979 15.0525 28.7397 14.9498C26.4314 13.9598 24.0473 13.5908 22.2282 13.38C21.8009 13.3305 21.3696 13.2885 20.9129 13.2441C19.4017 13.097 17.8391 12.9449 16.5385 12.517C15.8871 12.3027 15.4504 11.915 15.3405 11.4534Z" fill="white"/>
<path id="Vector_4" d="M20.4142 11.5898C20.8817 11.3624 21.4017 11.2422 21.9179 11.2422C22.724 11.2422 23.5143 11.5324 24.143 12.0595C24.2893 12.1822 24.4673 12.2421 24.6444 12.2421C24.8674 12.2421 25.089 12.147 25.2435 11.9627C25.5208 11.6321 25.4774 11.1393 25.1468 10.8621C24.2372 10.0996 23.0905 9.67969 21.9179 9.67969C21.1662 9.67969 20.4098 9.85437 19.7306 10.1848C19.3427 10.3736 19.1812 10.8412 19.3699 11.2291C19.5586 11.6172 20.0266 11.7787 20.4142 11.5898Z" fill="white"/>
<path id="Vector_5" d="M10.7191 16.7607H10.7184C10.287 16.7607 9.9375 17.1105 9.9375 17.542C9.9375 17.9735 10.2877 18.3232 10.7191 18.3232C11.1506 18.3232 11.5004 17.9735 11.5004 17.542C11.5004 17.1105 11.1505 16.7607 10.7191 16.7607Z" fill="white"/>
<path id="Vector_6" d="M31.137 31.6016C31.5684 31.6016 31.9182 31.2518 31.9182 30.8203C31.9182 30.3888 31.5684 30.0391 31.137 30.0391H31.1364C30.705 30.0391 30.3555 30.3888 30.3555 30.8203C30.3555 31.2518 30.7055 31.6016 31.137 31.6016Z" fill="white"/>
</g>
</g>
</g>
</svg>
